<?xml version="1.0" encoding="iso-8859-1"?>
<!-- Generator: Adobe Illustrator 19.0.0, SVG Export Plug-In . SVG Version: 6.00 Build 0)  -->
<svg version="1.1" id="Layer_1" xmlns="http://www.w3.org/2000/svg" xmlns:xlink="http://www.w3.org/1999/xlink" x="0px" y="0px"
	 viewBox="0 0 512 512" style="enable-background:new 0 0 512 512;" xml:space="preserve">
<g>
	<g>
		<path d="M489.244,347.022V73.956H22.756v273.067H0v45.511c0,25.095,20.416,45.511,45.511,45.511h420.978
			c25.095,0,45.511-20.416,45.511-45.511v-45.511H489.244z M56.889,108.089h398.222v238.933H56.889V108.089z M477.867,392.533
			c0,6.274-5.104,11.378-11.378,11.378H45.511c-6.274,0-11.378-5.104-11.378-11.378v-11.378h443.733V392.533z"/>
	</g>
</g>
<g>
	<g>
		<path d="M175.823,175.622c-1.41-3.905-3.394-7.335-5.899-10.193c-2.512-2.867-5.531-5.148-8.969-6.781
			c-3.452-1.635-7.25-2.464-11.29-2.464c-4.041,0-7.84,0.829-11.291,2.466c-3.438,1.632-6.456,3.912-8.969,6.78
			c-2.507,2.858-4.492,6.288-5.898,10.193c-1.403,3.891-2.115,8.207-2.115,12.827c0,4.621,0.711,8.936,2.115,12.827
			c1.406,3.906,3.391,7.335,5.898,10.195c2.517,2.872,5.538,5.138,8.978,6.733c3.446,1.599,7.242,2.41,11.282,2.41
			c4.039,0,7.835-0.81,11.282-2.41c3.441-1.596,6.461-3.863,8.978-6.733c2.507-2.859,4.491-6.29,5.898-10.195
			c1.404-3.896,2.116-8.211,2.116-12.827S177.227,179.517,175.823,175.622z M154.055,197.457c-1.192,2.063-2.629,3.066-4.392,3.066
			c-1.901,0-3.405-1.003-4.597-3.067c-1.291-2.235-1.946-5.263-1.946-9.005c0-3.742,0.657-6.791,1.95-9.062
			c1.191-2.094,2.694-3.111,4.592-3.111c1.76,0,3.196,1.018,4.387,3.111c1.294,2.276,1.95,5.325,1.95,9.064
			C156.001,192.189,155.345,195.219,154.055,197.457z"/>
	</g>
</g>
<g>
	<g>
		<path d="M234.052,199.908v-41.062h-21.708l-0.314,0.63c-0.229,0.457-0.832,1.271-2.409,2.54c-1.352,1.088-2.871,2.123-4.517,3.077
			c-1.654,0.96-3.334,1.8-4.989,2.495c-1.942,0.816-3.004,0.986-3.553,0.986h-1.138v20.093h1.138c1.386,0,2.959-0.218,4.677-0.649
			c1.692-0.423,3.386-0.993,5.034-1.695c1.646-0.7,3.16-1.467,4.496-2.276c0.408-0.247,0.789-0.498,1.14-0.754v16.615h-14.54v19.684
			h49.687v-19.684H234.052z"/>
	</g>
</g>
<g>
	<g>
		<path d="M301.328,199.908v-41.062H279.62l-0.314,0.63c-0.229,0.457-0.832,1.271-2.409,2.54c-1.352,1.088-2.871,2.123-4.517,3.077
			c-1.654,0.96-3.334,1.8-4.989,2.495c-1.942,0.816-3.004,0.986-3.553,0.986H262.7v20.093h1.138c1.386,0,2.961-0.218,4.679-0.649
			c1.692-0.423,3.386-0.993,5.034-1.695c1.646-0.7,3.16-1.467,4.497-2.276c0.408-0.247,0.788-0.498,1.14-0.754v16.615h-14.54v19.684
			h49.687v-19.684H301.328z"/>
	</g>
</g>
<g>
	<g>
		<path d="M384.512,175.623c-1.409-3.906-3.393-7.336-5.898-10.194c-2.512-2.867-5.531-5.148-8.969-6.781
			c-3.452-1.635-7.25-2.464-11.29-2.464c-4.041,0-7.84,0.829-11.291,2.466c-3.438,1.632-6.456,3.912-8.969,6.78
			c-2.507,2.858-4.492,6.288-5.898,10.193c-1.403,3.891-2.115,8.207-2.115,12.827s0.711,8.936,2.115,12.827
			c1.406,3.906,3.391,7.335,5.898,10.194c2.516,2.874,5.536,5.139,8.977,6.735c3.446,1.599,7.242,2.41,11.282,2.41
			c4.039,0,7.835-0.81,11.282-2.41c3.441-1.596,6.461-3.863,8.978-6.733c2.507-2.859,4.491-6.29,5.898-10.194
			c1.404-3.896,2.116-8.211,2.116-12.827S385.916,179.519,384.512,175.623z M362.745,197.457c-1.192,2.063-2.629,3.066-4.392,3.066
			c-1.901,0-3.405-1.003-4.597-3.067c-1.291-2.235-1.946-5.263-1.946-9.005s0.656-6.791,1.95-9.062
			c1.191-2.094,2.694-3.111,4.592-3.111c1.76,0,3.196,1.018,4.387,3.111c1.294,2.276,1.95,5.325,1.95,9.064
			C364.691,192.189,364.035,195.219,362.745,197.457z"/>
	</g>
</g>
<g>
	<g>
		<path d="M175.823,248.895c-1.41-3.905-3.394-7.335-5.899-10.193c-2.512-2.867-5.531-5.148-8.969-6.781
			c-3.452-1.635-7.25-2.464-11.29-2.464c-4.041,0-7.84,0.829-11.291,2.466c-3.438,1.632-6.456,3.912-8.969,6.78
			c-2.507,2.858-4.492,6.289-5.898,10.193c-1.403,3.891-2.115,8.207-2.115,12.827c0,4.62,0.711,8.936,2.115,12.827
			c1.406,3.906,3.391,7.335,5.898,10.195c2.517,2.872,5.538,5.138,8.978,6.733c3.446,1.599,7.242,2.41,11.282,2.41
			c4.039,0,7.835-0.81,11.282-2.41c3.441-1.596,6.461-3.863,8.978-6.733c2.507-2.859,4.491-6.29,5.898-10.194
			c1.404-3.896,2.116-8.211,2.116-12.827S177.227,252.79,175.823,248.895z M154.055,270.729c-1.192,2.063-2.629,3.066-4.392,3.066
			c-1.901,0-3.405-1.004-4.597-3.067c-1.291-2.235-1.946-5.263-1.946-9.005c0-3.741,0.657-6.79,1.95-9.062
			c1.191-2.094,2.694-3.111,4.592-3.111c1.76,0,3.196,1.018,4.387,3.111c1.294,2.276,1.95,5.325,1.95,9.064
			C156.001,265.461,155.345,268.491,154.055,270.729z"/>
	</g>
</g>
<g>
	<g>
		<path d="M234.052,273.18v-41.062h-21.708l-0.314,0.63c-0.229,0.457-0.832,1.271-2.409,2.54c-1.352,1.088-2.871,2.123-4.517,3.077
			c-1.654,0.96-3.334,1.8-4.989,2.495c-1.942,0.816-3.004,0.986-3.553,0.986h-1.138v20.093h1.138c1.386,0,2.959-0.218,4.677-0.649
			c1.692-0.423,3.386-0.993,5.034-1.695c1.646-0.7,3.16-1.467,4.496-2.276c0.408-0.247,0.789-0.498,1.14-0.754v16.615h-14.54v19.684
			h49.687V273.18H234.052z"/>
	</g>
</g>
<g>
	<g>
		<path d="M317.236,248.895c-1.41-3.905-3.394-7.335-5.899-10.193c-2.512-2.867-5.531-5.148-8.969-6.781
			c-3.452-1.635-7.25-2.464-11.29-2.464c-4.041,0-7.84,0.829-11.291,2.466c-3.438,1.632-6.456,3.912-8.969,6.78
			c-2.507,2.858-4.492,6.289-5.898,10.193c-1.403,3.891-2.115,8.207-2.115,12.827c0,4.62,0.711,8.936,2.115,12.827
			c1.406,3.906,3.391,7.335,5.898,10.195c2.517,2.872,5.538,5.138,8.978,6.733c3.446,1.599,7.242,2.41,11.282,2.41
			c4.039,0,7.835-0.81,11.282-2.41c3.441-1.596,6.461-3.863,8.978-6.733c2.507-2.859,4.491-6.29,5.898-10.194
			c1.404-3.896,2.116-8.211,2.116-12.827S318.64,252.79,317.236,248.895z M295.468,270.729c-1.192,2.063-2.629,3.066-4.392,3.066
			c-1.901,0-3.405-1.004-4.597-3.067c-1.291-2.235-1.946-5.263-1.946-9.005c0-3.741,0.657-6.79,1.95-9.062
			c1.191-2.094,2.694-3.111,4.592-3.111c1.76,0,3.196,1.018,4.387,3.111c1.294,2.276,1.95,5.325,1.95,9.064
			C297.414,265.461,296.759,268.491,295.468,270.729z"/>
	</g>
</g>
<g>
	<g>
		<path d="M375.466,273.18v-41.062h-21.708l-0.314,0.63c-0.229,0.457-0.832,1.271-2.409,2.539c-1.352,1.088-2.871,2.123-4.517,3.077
			c-1.654,0.96-3.334,1.8-4.989,2.495c-1.942,0.816-3.004,0.986-3.553,0.986h-1.138v20.093h1.138c1.386,0,2.959-0.218,4.677-0.649
			c1.692-0.423,3.386-0.993,5.034-1.695c1.646-0.7,3.16-1.467,4.497-2.276c0.408-0.247,0.788-0.498,1.14-0.754v16.615h-14.539
			v19.684h49.687V273.18H375.466z"/>
	</g>
</g>
<g>
</g>
<g>
</g>
<g>
</g>
<g>
</g>
<g>
</g>
<g>
</g>
<g>
</g>
<g>
</g>
<g>
</g>
<g>
</g>
<g>
</g>
<g>
</g>
<g>
</g>
<g>
</g>
<g>
</g>
</svg>
